# xmcd CD database file
#
# Track frame offsets:
#	150
#	19991
#	36939
#	56779
#
# Disc length: 981 seconds
#
# Revision: 1
# Processed by: cddbd v1.5.1PL2 Copyright (c) Steve Scherf et al.
# Submitted via: CDex 1.51
#
DISCID=3203d304
DTITLE=タケカワユキヒデ＆T's Company - Tantra オリエンタルボックス
DYEAR=2005
DGENRE=Game
TTITLE0=ガンダーラ TANTRA.ver
TTITLE1=ガンダーラ ティーズ・カンパニーVer
TTITLE2=ガンダーラ TANTRA.ver(カラオケ)
TTITLE3=ガンダーラ ティーズ・カンパニーVer
EXTD=YEAR: 2005
EXTT0=
EXTT1=
EXTT2=
EXTT3=
PLAYORDER=
